<svg width="88" height="88" viewBox="0 0 88 88" fill="none" xmlns="http://www.w3.org/2000/svg">
<g clip-path="url(#clip0_125_18934)">
<circle cx="43.7255" cy="43.7255" r="43.7255" fill="#95227D"/>
<path d="M36.4375 43.5C36.4375 44.2128 36.1544 44.8963 35.6503 45.4003C35.1463 45.9044 34.4628 46.1875 33.75 46.1875C33.0372 46.1875 32.3537 45.9044 31.8497 45.4003C31.3456 44.8963 31.0625 44.2128 31.0625 43.5C31.0625 42.7872 31.3456 42.1037 31.8497 41.5997C32.3537 41.0956 33.0372 40.8125 33.75 40.8125C34.4628 40.8125 35.1463 41.0956 35.6503 41.5997C36.1544 42.1037 36.4375 42.7872 36.4375 43.5ZM47.1875 43.5C47.1875 44.2128 46.9044 44.8963 46.4003 45.4003C45.8963 45.9044 45.2128 46.1875 44.5 46.1875C43.7872 46.1875 43.1037 45.9044 42.5997 45.4003C42.0956 44.8963 41.8125 44.2128 41.8125 43.5C41.8125 42.7872 42.0956 42.1037 42.5997 41.5997C43.1037 41.0956 43.7872 40.8125 44.5 40.8125C45.2128 40.8125 45.8963 41.0956 46.4003 41.5997C46.9044 42.1037 47.1875 42.7872 47.1875 43.5ZM55.25 46.1875C55.9628 46.1875 56.6463 45.9044 57.1503 45.4003C57.6544 44.8963 57.9375 44.2128 57.9375 43.5C57.9375 42.7872 57.6544 42.1037 57.1503 41.5997C56.6463 41.0956 55.9628 40.8125 55.25 40.8125C54.5372 40.8125 53.8537 41.0956 53.3497 41.5997C52.8456 42.1037 52.5625 42.7872 52.5625 43.5C52.5625 44.2128 52.8456 44.8963 53.3497 45.4003C53.8537 45.9044 54.5372 46.1875 55.25 46.1875Z" fill="white"/>
<path d="M28.8184 64.4706L28.8722 64.4598C33.7903 63.4842 36.7949 62.1969 38.1924 61.4901C40.25 62.0389 42.3706 62.3154 44.5 62.3125C56.3734 62.3125 66 53.8899 66 43.5C66 33.1101 56.3734 24.6875 44.5 24.6875C32.6266 24.6875 23 33.1101 23 43.5C23 48.23 24.9968 52.5569 28.2944 55.8625C28.0637 57.9859 27.5912 60.076 26.8861 62.0921L26.8781 62.1217C26.6777 62.6991 26.459 63.2701 26.2223 63.8336C26.01 64.3335 26.4212 64.8925 26.956 64.8065C27.5786 64.7046 28.1995 64.5926 28.8184 64.4706ZM30.9684 56.1178C31.0061 55.7243 30.9565 55.3274 30.8232 54.9553C30.6898 54.5832 30.4761 54.2451 30.1971 53.9651C27.3484 51.1056 25.6875 47.4452 25.6875 43.5C25.6875 34.9215 33.7607 27.375 44.5 27.375C55.2393 27.375 63.3125 34.9215 63.3125 43.5C63.3125 52.0812 55.2393 59.625 44.5 59.625C42.6056 59.6278 40.719 59.382 38.8885 58.894C38.2488 58.7226 37.5684 58.7934 36.9777 59.0929C35.9376 59.6196 33.6452 60.6247 29.8988 61.4928C30.4215 59.7382 30.7796 57.9388 30.9684 56.1178Z" fill="white"/>
</g>
<defs>
<clipPath id="clip0_125_18934">
<rect width="87.451" height="87.451" fill="white"/>
</clipPath>
</defs>
</svg>
