<?xml version="1.0" encoding="iso-8859-1"?>
<!-- Generator: Adobe Illustrator 19.0.0, SVG Export Plug-In . SVG Version: 6.00 Build 0)  -->
<svg version="1.1" id="Capa_1" xmlns="http://www.w3.org/2000/svg" xmlns:xlink="http://www.w3.org/1999/xlink" x="0px" y="0px"
	 viewBox="0 0 512 512" style="enable-background:new 0 0 512 512;" xml:space="preserve">
<g>
	<circle style="fill:#BDC3C7;" cx="256" cy="256" r="256"/>
	<path style="fill:#4482C3;" d="M194.207,256v141.241c-0.003,9.366,3.717,18.349,10.339,24.971
		c6.623,6.622,15.605,10.342,24.971,10.339h123.586l50.847,32.309l46.257,29.484l-21.275-49.611l-5.208-12.182h26.483
		c9.366,0.003,18.348-3.717,24.971-10.339c6.622-6.623,10.342-15.605,10.339-24.971V247.172c0.003-9.366-3.717-18.348-10.339-24.971
		c-6.623-6.623-15.605-10.342-24.971-10.339H317.793L194.207,256z"/>
	<path style="fill:#46B29D;" d="M317.793,70.621V220.69c0.003,9.366-3.717,18.348-10.339,24.971
		c-6.623,6.623-15.605,10.342-24.971,10.339H158.897l-97.103,61.793L88.276,256H61.793c-9.366,0.003-18.348-3.717-24.971-10.339
		S26.48,230.055,26.483,220.69V70.621c-0.003-9.366,3.717-18.349,10.339-24.971S52.427,35.308,61.793,35.31h220.69
		c9.366-0.003,18.349,3.717,24.971,10.339C314.076,52.272,317.796,61.255,317.793,70.621z"/>
	<g>
		<circle style="fill:#E6E7E8;" cx="97.103" cy="141.241" r="26.483"/>
		<circle style="fill:#E6E7E8;" cx="176.552" cy="141.241" r="26.483"/>
		<circle style="fill:#E6E7E8;" cx="256" cy="141.241" r="26.483"/>
		<circle style="fill:#E6E7E8;" cx="256" cy="317.793" r="26.483"/>
		<circle style="fill:#E6E7E8;" cx="335.448" cy="317.793" r="26.483"/>
		<circle style="fill:#E6E7E8;" cx="414.897" cy="317.793" r="26.483"/>
	</g>
</g>
<g>
</g>
<g>
</g>
<g>
</g>
<g>
</g>
<g>
</g>
<g>
</g>
<g>
</g>
<g>
</g>
<g>
</g>
<g>
</g>
<g>
</g>
<g>
</g>
<g>
</g>
<g>
</g>
<g>
</g>
</svg>
