<svg width="88" height="88" viewBox="0 0 88 88" fill="none" xmlns="http://www.w3.org/2000/svg">
<g clip-path="url(#clip0_125_18941)">
<circle cx="44.1961" cy="44.2746" r="43.7255" fill="#95227D"/>
<path d="M30.5319 29.244C30.5319 27.432 31.2517 25.6942 32.533 24.4129C33.8142 23.1317 35.552 22.4119 37.364 22.4119C39.176 22.4119 40.9138 23.1317 42.195 24.4129C43.4763 25.6942 44.1961 27.432 44.1961 29.244C44.1961 27.432 44.9159 25.6942 46.1972 24.4129C47.4785 23.1317 49.2162 22.4119 51.0282 22.4119C52.8402 22.4119 54.578 23.1317 55.8593 24.4129C57.1405 25.6942 57.8603 27.432 57.8603 29.244V29.2604C57.8603 29.4517 57.8603 29.9982 57.7565 30.6104H63.326C64.0508 30.6104 64.7459 30.8983 65.2584 31.4108C65.7709 31.9233 66.0589 32.6184 66.0589 33.3432V38.8089C66.0589 39.5337 65.7709 40.2288 65.2584 40.7413C64.7459 41.2538 64.0508 41.5418 63.326 41.5418V62.0381C63.326 63.1253 62.8941 64.1679 62.1254 64.9367C61.3566 65.7055 60.3139 66.1374 59.2268 66.1374H29.1655C28.0783 66.1374 27.0356 65.7055 26.2669 64.9367C25.4981 64.1679 25.0662 63.1253 25.0662 62.0381V41.5418C24.3414 41.5418 23.6463 41.2538 23.1338 40.7413C22.6213 40.2288 22.3334 39.5337 22.3334 38.8089V33.3432C22.3334 32.6184 22.6213 31.9233 23.1338 31.4108C23.6463 30.8983 24.3414 30.6104 25.0662 30.6104H30.6358C30.5636 30.1641 30.5288 29.7125 30.5319 29.2604V29.244ZM33.4506 30.6104H41.4633V29.244C41.4633 28.7056 41.3572 28.1726 41.1512 27.6753C40.9452 27.1779 40.6433 26.726 40.2626 26.3454C39.882 25.9647 39.4301 25.6628 38.9327 25.4567C38.4354 25.2507 37.9023 25.1447 37.364 25.1447C36.8257 25.1447 36.2926 25.2507 35.7953 25.4567C35.2979 25.6628 34.846 25.9647 34.4654 26.3454C34.0847 26.726 33.7828 27.1779 33.5768 27.6753C33.3708 28.1726 33.2647 28.7056 33.2647 29.244C33.2647 29.4763 33.2702 29.9928 33.3877 30.4191C33.4041 30.4843 33.4251 30.5482 33.4506 30.6104ZM46.929 30.6104H54.9417C54.9668 30.5481 54.9878 30.4842 55.0045 30.4191C55.122 29.9928 55.1275 29.4763 55.1275 29.244C55.1275 28.1568 54.6956 27.1141 53.9268 26.3454C53.1581 25.5766 52.1154 25.1447 51.0282 25.1447C49.941 25.1447 48.8984 25.5766 48.1296 26.3454C47.3608 27.1141 46.929 28.1568 46.929 29.244V30.6104ZM25.0662 33.3432V38.8089H41.4633V33.3432H25.0662ZM46.929 33.3432V38.8089H63.326V33.3432H46.929ZM60.5932 41.5418H46.929V63.4045H59.2268C59.5892 63.4045 59.9367 63.2606 60.193 63.0043C60.4492 62.748 60.5932 62.4005 60.5932 62.0381V41.5418ZM41.4633 63.4045V41.5418H27.7991V62.0381C27.7991 62.4005 27.943 62.748 28.1993 63.0043C28.4555 63.2606 28.8031 63.4045 29.1655 63.4045H41.4633Z" fill="white"/>
</g>
<defs>
<clipPath id="clip0_125_18941">
<rect width="87.451" height="87.451" fill="white" transform="translate(0.470581 0.549072)"/>
</clipPath>
</defs>
</svg>
