<svg xmlns="http://www.w3.org/2000/svg" width="88" height="88" fill="none" xmlns:v="https://vecta.io/nano"><circle cx="43.726" cy="43.726" r="43.726" fill="#95227d"/><g fill="#fff"><path d="M28.25 28.25A5.25 5.25 0 0 1 33.5 23h21a5.25 5.25 0 0 1 5.25 5.25v31.5A5.25 5.25 0 0 1 54.5 65h-21a5.25 5.25 0 0 1-5.25-5.25v-31.5zm26.25-2.625h-21c-.696 0-1.364.277-1.856.769s-.769 1.16-.769 1.856v31.5c0 .696.277 1.364.769 1.856s1.16.769 1.856.769h21c.696 0 1.364-.277 1.856-.769s.769-1.16.769-1.856v-31.5c0-.696-.277-1.364-.769-1.856s-1.16-.769-1.856-.769z"/><path fill-rule="evenodd" d="M49.872 45.184c-.02-.317-.076-.622-.163-.917a4.63 4.63 0 0 0-.352-.854c-.146-.275-.319-.542-.515-.802a8.42 8.42 0 0 0-.654-.76l-.767-.728-.855-.707-.919-.696-.957-.695-.148-.107-.149-.108-.15-.109-.152-.11-.153-.111-.155-.113-.157-.115-.159-.117c-.187-.132-.357-.267-.511-.404s-.292-.274-.416-.412-.231-.276-.325-.413-.173-.273-.238-.406-.117-.264-.157-.391-.066-.251-.08-.369a1.67 1.67 0 0 1-.008-.34 1.33 1.33 0 0 1 .059-.302c.031-.095.072-.185.123-.27a1.36 1.36 0 0 1 .183-.237c.07-.074.151-.141.24-.204a2.01 2.01 0 0 1 .295-.169 2.63 2.63 0 0 1 .347-.133 3.47 3.47 0 0 1 .398-.096c.141-.026.29-.045.446-.058l.492-.019c.294.01.553.049.779.111s.421.146.587.245.306.212.423.333.21.248.286.376.132.254.175.373.072.23.092.325.03.175.035.231l.006.092h2.514a3.95 3.95 0 0 0-.063-.686 4.69 4.69 0 0 0-.196-.741c-.089-.251-.202-.505-.34-.753a4.73 4.73 0 0 0-.495-.721 4.54 4.54 0 0 0-.66-.646 4.56 4.56 0 0 0-.837-.527c-.309-.151-.65-.275-1.024-.365a6.03 6.03 0 0 0-1.221-.16h-.032-.032l-.032-.001h-.032a7.62 7.62 0 0 0-.884.05c-.284.033-.557.083-.818.148s-.51.146-.745.242-.458.207-.666.332a4.24 4.24 0 0 0-.58.418 3.91 3.91 0 0 0-.486.5 3.78 3.78 0 0 0-.387.578 3.89 3.89 0 0 0-.28.652 3.79 3.79 0 0 0-.125.495c-.031.167-.05.335-.058.504s-.006.339.007.51.036.341.07.512a4.73 4.73 0 0 0 .131.511c.054.17.117.338.19.506s.156.334.248.498l.303.486-.511.567-.437.561-.364.556-.291.551c-.085.183-.157.366-.218.547a4.58 4.58 0 0 0-.146.545 4.2 4.2 0 0 0-.073.542 4.07 4.07 0 0 0-.001.541c.02.317.076.622.163.917a4.63 4.63 0 0 0 .352.854c.146.275.319.542.515.802a8.42 8.42 0 0 0 .654.76l.767.728.855.707.919.696.957.695.148.107.149.108.15.109.151.11.153.111.155.113.157.115.159.117a6.01 6.01 0 0 1 .511.404c.154.136.292.274.416.412s.231.276.325.413a3.3 3.3 0 0 1 .238.406 2.66 2.66 0 0 1 .157.391c.039.127.066.251.08.369a1.68 1.68 0 0 1 .008.34 1.33 1.33 0 0 1-.059.302c-.031.095-.072.185-.124.27s-.112.164-.183.238-.151.142-.24.205-.188.119-.295.17-.223.095-.348.134-.257.07-.398.096a4.44 4.44 0 0 1-.445.056l-.491.016a3.36 3.36 0 0 1-.778-.111c-.226-.062-.42-.146-.587-.245s-.306-.212-.423-.333-.21-.248-.285-.376a2.22 2.22 0 0 1-.175-.373c-.043-.119-.072-.23-.092-.325s-.03-.175-.035-.231l-.006-.092h-2.514a3.95 3.95 0 0 0 .063.686c.043.24.107.49.196.741a4.87 4.87 0 0 0 .34.753 4.72 4.72 0 0 0 .495.721c.192.23.411.448.66.646a4.55 4.55 0 0 0 .836.527c.309.151.65.275 1.023.365s.78.146 1.221.16h.032.032l.032.001h.032a7.62 7.62 0 0 0 .884-.05c.284-.033.557-.083.818-.148s.51-.146.745-.242.458-.207.666-.332.401-.265.58-.418a3.91 3.91 0 0 0 .486-.5 3.78 3.78 0 0 0 .387-.578 3.89 3.89 0 0 0 .28-.652 3.79 3.79 0 0 0 .125-.495c.031-.167.05-.335.058-.504s.006-.339-.007-.51-.036-.341-.07-.512-.077-.341-.131-.511-.117-.339-.19-.506-.156-.334-.248-.498l-.303-.486.511-.567.437-.561.364-.556.291-.551c.085-.183.157-.365.218-.547a4.58 4.58 0 0 0 .146-.545c.037-.181.061-.362.073-.542a4.07 4.07 0 0 0 .001-.541zm-5.091 1.687l-1.516-1.114-1.306-1.084c-.382-.356-.702-.708-.931-1.055s-.369-.689-.391-1.027c-.011-.171.01-.351.061-.539s.133-.386.243-.591a4.92 4.92 0 0 1 .419-.64 8.35 8.35 0 0 1 .589-.686l.023.018.023.018.308.227.307.224.306.222.304.22 1.516 1.114 1.306 1.084c.382.356.702.708.931 1.055s.369.689.391 1.027c.011.171-.01.351-.061.539s-.133.386-.243.591a4.92 4.92 0 0 1-.419.64 8.35 8.35 0 0 1-.589.686l-.023-.018-.023-.018-.308-.228-.307-.224-.306-.222-.304-.22z"/></g></svg>