<svg width="89" height="88" viewBox="0 0 89 88" fill="none" xmlns="http://www.w3.org/2000/svg">
<g clip-path="url(#clip0_23_221)">
<circle cx="44.5784" cy="43.9118" r="43.7255" fill="#6750A4"/>
<path d="M23.5355 30.0378C26.196 28.9266 30.0107 27.7284 33.7203 27.356C37.7185 26.9536 41.1094 27.5452 43.0754 29.6143V58.8828C40.2646 57.2912 36.7024 57.0719 33.4167 57.4023C29.8695 57.7626 26.2922 58.7867 23.5355 59.8378V30.0378ZM46.0815 29.6143C48.0475 27.5452 51.4384 26.9536 55.4366 27.356C59.1461 27.7284 62.9609 28.9266 65.6213 30.0378V59.8378C62.8617 58.7867 59.2874 57.7596 55.7402 57.4053C52.4515 57.0719 48.8922 57.2881 46.0815 58.8828V29.6143ZM44.5784 26.8995C41.6174 24.3559 37.3247 23.9775 33.4167 24.3679C28.8654 24.8274 24.272 26.386 21.4102 27.6863C21.1476 27.8056 20.925 27.9979 20.7688 28.2402C20.6126 28.4825 20.5295 28.7646 20.5294 29.0528V62.0871C20.5295 62.3384 20.5927 62.5856 20.7131 62.8061C20.8336 63.0266 21.0076 63.2134 21.2191 63.3494C21.4305 63.4854 21.6728 63.5662 21.9236 63.5844C22.1744 63.6026 22.4258 63.5576 22.6548 63.4536C25.3062 62.2523 29.5779 60.8078 33.7173 60.3904C37.9529 59.9639 41.5032 60.6517 43.406 63.0241C43.5469 63.1995 43.7254 63.341 43.9283 63.4383C44.1312 63.5355 44.3534 63.586 44.5784 63.586C44.8035 63.586 45.0257 63.5355 45.2286 63.4383C45.4315 63.341 45.61 63.1995 45.7508 63.0241C47.6537 60.6517 51.2039 59.9639 55.4366 60.3904C59.579 60.8078 63.8537 62.2523 66.5021 63.4536C66.731 63.5576 66.9824 63.6026 67.2333 63.5844C67.4841 63.5662 67.7263 63.4854 67.9378 63.3494C68.1493 63.2134 68.3232 63.0266 68.4437 62.8061C68.5642 62.5856 68.6274 62.3384 68.6275 62.0871V29.0528C68.6274 28.7646 68.5443 28.4825 68.3881 28.2402C68.2319 27.9979 68.0093 27.8056 67.7467 27.6863C64.8848 26.386 60.2915 24.8274 55.7402 24.3679C51.8322 23.9745 47.5395 24.3559 44.5784 26.8995Z" fill="white"/>
</g>
<defs>
<clipPath id="clip0_23_221">
<rect width="87.451" height="87.451" fill="white" transform="translate(0.852936 0.186279)"/>
</clipPath>
</defs>
</svg>
