<svg width="89" height="88" viewBox="0 0 89 88" fill="none" xmlns="http://www.w3.org/2000/svg">
<g clip-path="url(#clip0_26_175)">
<circle cx="44.3432" cy="44.2746" r="43.7255" fill="#95227D"/>
<path d="M63.5923 25.0226C63.7947 25.2253 63.933 25.483 63.9902 25.7637C64.0474 26.0443 64.0208 26.3356 63.9139 26.6014L46.9032 69.132C46.7532 69.5066 46.5029 69.8325 46.1797 70.0739C45.8565 70.3154 45.473 70.4629 45.0714 70.5004C44.6697 70.5379 44.2655 70.4638 43.9032 70.2864C43.541 70.1089 43.2347 69.8349 43.0181 69.4946L33.7278 54.8908L19.1259 45.5994C18.7848 45.383 18.5101 45.0765 18.3321 44.7139C18.1542 44.3512 18.0798 43.9464 18.1173 43.5442C18.1548 43.142 18.3027 42.7579 18.5446 42.4344C18.7866 42.1109 19.1132 41.8605 19.4884 41.7109L62.0137 24.7039C62.2794 24.5969 62.5707 24.5704 62.8513 24.6276C63.132 24.6847 63.3896 24.8231 63.5923 25.0255V25.0226ZM36.6453 54.0371L44.7165 66.72L58.5525 32.1271L36.6453 54.0371ZM56.4857 30.0601L21.8972 43.8978L34.5814 51.9671L56.4857 30.0601Z" fill="white"/>
</g>
<defs>
<clipPath id="clip0_26_175">
<rect width="87.451" height="87.451" fill="white" transform="translate(0.617676 0.549072)"/>
</clipPath>
</defs>
</svg>
