<?xml version="1.0" encoding="iso-8859-1"?>
<!-- Generator: Adobe Illustrator 19.0.0, SVG Export Plug-In . SVG Version: 6.00 Build 0)  -->
<svg version="1.1" id="Capa_1" xmlns="http://www.w3.org/2000/svg" xmlns:xlink="http://www.w3.org/1999/xlink" x="0px" y="0px"
	 viewBox="0 0 511.978 511.978" style="enable-background:new 0 0 511.978 511.978;" xml:space="preserve">
<g>
	<path style="fill:#35495E;" d="M351.603,301.639l150.069,150.069c13.758,13.804,13.739,36.141-0.042,49.922
		s-36.118,13.8-49.922,0.042L301.639,351.603L351.603,301.639z"/>
	<path style="fill:#2C2F38;" d="M476.69,485.517c-4.163-0.041-7.72-3.011-8.502-7.1c-0.782-4.089,1.427-8.162,5.281-9.736
		c3.854-1.574,8.283-0.213,10.588,3.255c2.304,3.467,1.844,8.078-1.1,11.022C481.264,484.569,479.026,485.483,476.69,485.517z"/>
	<circle style="fill:#3F5C6C;" cx="203.034" cy="203.034" r="203.034"/>
	<circle style="fill:#B0D3F0;" cx="203.034" cy="203.034" r="167.724"/>
	<path style="fill:#CB8252;" d="M300.138,209.037v64.618c0,4.875-3.952,8.828-8.828,8.828H114.759c-4.875,0-8.828-3.952-8.828-8.828
		v-64.618H300.138z"/>
	<g>
		<path style="fill:#59474E;" d="M203.034,238.345c-2.341,0.001-4.587-0.929-6.243-2.585c-1.656-1.656-2.585-3.901-2.585-6.243
			v-26.483c0-4.875,3.952-8.828,8.828-8.828s8.828,3.952,8.828,8.828v26.483c0.001,2.341-0.929,4.587-2.585,6.243
			C207.622,237.416,205.376,238.345,203.034,238.345z"/>
		<path style="fill:#59474E;" d="M256,158.897c-2.341,0.001-4.587-0.929-6.243-2.585c-1.656-1.656-2.585-3.901-2.585-6.243v-35.31
			h-88.276v35.31c0,4.875-3.952,8.828-8.828,8.828s-8.828-3.952-8.828-8.828v-35.31c0.011-9.746,7.909-17.644,17.655-17.655h88.276
			c9.746,0.011,17.644,7.909,17.655,17.655v35.31c0.001,2.341-0.929,4.587-2.585,6.243C260.587,157.967,258.341,158.897,256,158.897
			z"/>
	</g>
	<path style="fill:#805333;" d="M105.931,141.241h194.207c4.875,0,8.828,3.952,8.828,8.828v43.067
		c0,10.342-8.384,18.726-18.726,18.726H115.83c-4.966,0-9.73-1.973-13.241-5.485c-3.512-3.512-5.485-8.275-5.485-13.241v-43.067
		C97.103,145.194,101.056,141.241,105.931,141.241z"/>
</g>
<g>
</g>
<g>
</g>
<g>
</g>
<g>
</g>
<g>
</g>
<g>
</g>
<g>
</g>
<g>
</g>
<g>
</g>
<g>
</g>
<g>
</g>
<g>
</g>
<g>
</g>
<g>
</g>
<g>
</g>
</svg>
