<svg width="89" height="88" viewBox="0 0 89 88" fill="none" xmlns="http://www.w3.org/2000/svg">
<g clip-path="url(#clip0_26_177)">
<circle cx="44.6667" cy="43.7255" r="43.7255" fill="#6750A4"/>
<path d="M55.0012 49.3562C57.6561 45.5643 58.8452 40.8631 58.3306 36.193C57.816 31.5228 55.6357 27.2283 52.2258 24.1685C48.8159 21.1087 44.4279 19.5094 39.9397 19.6904C35.4516 19.8714 31.1942 21.8194 28.0194 25.1448C24.8445 28.4701 22.9864 32.9275 22.8166 37.6252C22.6469 42.3229 24.1781 46.9145 27.104 50.4813C30.0298 54.0481 34.1344 56.3271 38.5967 56.8624C43.059 57.3976 47.5499 56.1497 51.1708 53.3682H51.1681C51.2503 53.483 51.3381 53.592 51.4368 53.6982L61.9929 64.7469C62.507 65.2853 63.2044 65.588 63.9318 65.5883C64.6591 65.5886 65.3568 65.2864 65.8712 64.7483C66.3857 64.2102 66.6749 63.4802 66.6752 62.7189C66.6754 61.9577 66.3867 61.2275 65.8726 60.689L55.3165 49.6403C55.2185 49.5365 55.113 49.4434 55.0012 49.3562ZM55.7086 38.3248C55.7086 40.3975 55.3185 42.45 54.5607 44.365C53.8028 46.28 52.692 48.0199 51.2917 49.4856C49.8914 50.9513 48.2289 52.1139 46.3993 52.9071C44.5697 53.7003 42.6088 54.1086 40.6284 54.1086C38.648 54.1086 36.6871 53.7003 34.8575 52.9071C33.0279 52.1139 31.3654 50.9513 29.9651 49.4856C28.5648 48.0199 27.454 46.28 26.6961 44.365C25.9383 42.45 25.5482 40.3975 25.5482 38.3248C25.5482 34.1387 27.137 30.124 29.9651 27.1639C32.7932 24.2039 36.6289 22.541 40.6284 22.541C44.6279 22.541 48.4636 24.2039 51.2917 27.1639C54.1198 30.124 55.7086 34.1387 55.7086 38.3248Z" fill="#FFF8F8"/>
</g>
<defs>
<clipPath id="clip0_26_177">
<rect width="87.451" height="87.451" fill="white" transform="translate(0.941162)"/>
</clipPath>
</defs>
</svg>
