<svg width="89" height="88" viewBox="0 0 89 88" fill="none" xmlns="http://www.w3.org/2000/svg">
<g clip-path="url(#clip0_125_18913)">
<circle cx="44.4313" cy="43.9118" r="43.7255" fill="#95227D"/>
<path d="M39.5 20C38.3065 20 37.1619 20.5835 36.318 21.6222C35.4741 22.6608 35 24.0696 35 25.5385V27.3846H24.5C23.3065 27.3846 22.1619 27.9681 21.318 29.0068C20.4741 30.0455 20 31.4542 20 32.9231V62.4615C20 63.9304 20.4741 65.3392 21.318 66.3778C22.1619 67.4165 23.3065 68 24.5 68H63.5C64.6935 68 65.8381 67.4165 66.682 66.3778C67.5259 65.3392 68 63.9304 68 62.4615V32.9231C68 31.4542 67.5259 30.0455 66.682 29.0068C65.8381 27.9681 64.6935 27.3846 63.5 27.3846H53V25.5385C53 24.0696 52.5259 22.6608 51.682 21.6222C50.8381 20.5835 49.6935 20 48.5 20H39.5ZM39.5 23.6923H48.5C48.8978 23.6923 49.2794 23.8868 49.5607 24.233C49.842 24.5793 50 25.0488 50 25.5385V27.3846H38V25.5385C38 25.0488 38.158 24.5793 38.4393 24.233C38.7206 23.8868 39.1022 23.6923 39.5 23.6923ZM45.158 49.2209L65 42.7114V62.4615C65 62.9512 64.842 63.4207 64.5607 63.767C64.2794 64.1132 63.8978 64.3077 63.5 64.3077H24.5C24.1022 64.3077 23.7206 64.1132 23.4393 63.767C23.158 63.4207 23 62.9512 23 62.4615V42.7077L42.842 49.2209C43.6008 49.4696 44.3992 49.4696 45.158 49.2209ZM24.5 31.0769H63.5C63.8978 31.0769 64.2794 31.2714 64.5607 31.6176C64.842 31.9639 65 32.4334 65 32.9231V38.8898L44.387 45.6542C44.1334 45.7375 43.8666 45.7375 43.613 45.6542L23 38.8898V32.9231C23 32.4334 23.158 31.9639 23.4393 31.6176C23.7206 31.2714 24.1022 31.0769 24.5 31.0769Z" fill="white"/>
</g>
<defs>
<clipPath id="clip0_125_18913">
<rect width="87.451" height="87.451" fill="white" transform="translate(0.705811 0.186279)"/>
</clipPath>
</defs>
</svg>
