<svg width="88" height="88" viewBox="0 0 88 88" fill="none" xmlns="http://www.w3.org/2000/svg">
<g clip-path="url(#clip0_125_18965)">
<circle cx="43.9608" cy="43.9118" r="43.7255" fill="#95227D"/>
<path d="M59.433 17.6765H37.0657C35.3708 17.6765 33.7453 18.3387 32.5468 19.5175C31.3484 20.6963 30.6751 22.295 30.6751 23.9621C28.9802 23.9621 27.3547 24.6243 26.1562 25.803C24.9577 26.9818 24.2844 28.5806 24.2844 30.2476V61.6753C24.2844 63.3423 24.9577 64.9411 26.1562 66.1198C27.3547 67.2986 28.9802 67.9608 30.6751 67.9608H53.0423C54.7372 67.9608 56.3627 67.2986 57.5612 66.1198C58.7597 64.9411 59.433 63.3423 59.433 61.6753C61.1279 61.6753 62.7534 61.0131 63.9519 59.8343C65.1503 58.6555 65.8236 57.0568 65.8236 55.3897V23.9621C65.8236 22.295 65.1503 20.6963 63.9519 19.5175C62.7534 18.3387 61.1279 17.6765 59.433 17.6765ZM59.433 58.5325V30.2476C59.433 28.5806 58.7597 26.9818 57.5612 25.803C56.3627 24.6243 54.7372 23.9621 53.0423 23.9621H33.8704C33.8704 23.1285 34.207 22.3292 34.8063 21.7398C35.4055 21.1504 36.2183 20.8193 37.0657 20.8193H59.433C60.2804 20.8193 61.0932 21.1504 61.6924 21.7398C62.2917 22.3292 62.6283 23.1285 62.6283 23.9621V55.3897C62.6283 56.2233 62.2917 57.0226 61.6924 57.612C61.0932 58.2014 60.2804 58.5325 59.433 58.5325ZM27.4797 30.2476C27.4797 29.4141 27.8164 28.6147 28.4156 28.0253C29.0149 27.4359 29.8276 27.1048 30.6751 27.1048H53.0423C53.8898 27.1048 54.7025 27.4359 55.3018 28.0253C55.901 28.6147 56.2377 29.4141 56.2377 30.2476V61.6753C56.2377 62.5088 55.901 63.3082 55.3018 63.8976C54.7025 64.4869 53.8898 64.8181 53.0423 64.8181H30.6751C29.8276 64.8181 29.0149 64.4869 28.4156 63.8976C27.8164 63.3082 27.4797 62.5088 27.4797 61.6753V30.2476Z" fill="white"/>
</g>
<g clip-path="url(#clip1_125_18965)">
<circle cx="43.9608" cy="43.9118" r="43.7255" fill="#95227D"/>
<path d="M59.433 17.6765H37.0657C35.3708 17.6765 33.7453 18.3387 32.5468 19.5175C31.3484 20.6963 30.6751 22.295 30.6751 23.9621C28.9802 23.9621 27.3547 24.6243 26.1562 25.803C24.9577 26.9818 24.2844 28.5806 24.2844 30.2476V61.6753C24.2844 63.3423 24.9577 64.9411 26.1562 66.1198C27.3547 67.2986 28.9802 67.9608 30.6751 67.9608H53.0423C54.7372 67.9608 56.3627 67.2986 57.5612 66.1198C58.7597 64.9411 59.433 63.3423 59.433 61.6753C61.1279 61.6753 62.7534 61.0131 63.9519 59.8343C65.1503 58.6555 65.8236 57.0568 65.8236 55.3897V23.9621C65.8236 22.295 65.1503 20.6963 63.9519 19.5175C62.7534 18.3387 61.1279 17.6765 59.433 17.6765ZM59.433 58.5325V30.2476C59.433 28.5806 58.7597 26.9818 57.5612 25.803C56.3627 24.6243 54.7372 23.9621 53.0423 23.9621H33.8704C33.8704 23.1285 34.207 22.3292 34.8063 21.7398C35.4055 21.1504 36.2183 20.8193 37.0657 20.8193H59.433C60.2804 20.8193 61.0932 21.1504 61.6924 21.7398C62.2917 22.3292 62.6283 23.1285 62.6283 23.9621V55.3897C62.6283 56.2233 62.2917 57.0226 61.6924 57.612C61.0932 58.2014 60.2804 58.5325 59.433 58.5325ZM27.4797 30.2476C27.4797 29.4141 27.8164 28.6147 28.4156 28.0253C29.0149 27.4359 29.8276 27.1048 30.6751 27.1048H53.0423C53.8898 27.1048 54.7025 27.4359 55.3018 28.0253C55.901 28.6147 56.2377 29.4141 56.2377 30.2476V61.6753C56.2377 62.5088 55.901 63.3082 55.3018 63.8976C54.7025 64.4869 53.8898 64.8181 53.0423 64.8181H30.6751C29.8276 64.8181 29.0149 64.4869 28.4156 63.8976C27.8164 63.3082 27.4797 62.5088 27.4797 61.6753V30.2476Z" fill="white"/>
</g>
<g clip-path="url(#clip2_125_18965)">
<circle cx="43.9608" cy="43.9118" r="43.7255" fill="#95227D"/>
<path d="M59.433 17.6765H37.0657C35.3708 17.6765 33.7453 18.3387 32.5468 19.5175C31.3484 20.6963 30.6751 22.295 30.6751 23.9621C28.9802 23.9621 27.3547 24.6243 26.1562 25.803C24.9577 26.9818 24.2844 28.5806 24.2844 30.2476V61.6753C24.2844 63.3423 24.9577 64.9411 26.1562 66.1198C27.3547 67.2986 28.9802 67.9608 30.6751 67.9608H53.0423C54.7372 67.9608 56.3627 67.2986 57.5612 66.1198C58.7597 64.9411 59.433 63.3423 59.433 61.6753C61.1279 61.6753 62.7534 61.0131 63.9519 59.8343C65.1503 58.6555 65.8236 57.0568 65.8236 55.3897V23.9621C65.8236 22.295 65.1503 20.6963 63.9519 19.5175C62.7534 18.3387 61.1279 17.6765 59.433 17.6765ZM59.433 58.5325V30.2476C59.433 28.5806 58.7597 26.9818 57.5612 25.803C56.3627 24.6243 54.7372 23.9621 53.0423 23.9621H33.8704C33.8704 23.1285 34.207 22.3292 34.8063 21.7398C35.4055 21.1504 36.2183 20.8193 37.0657 20.8193H59.433C60.2804 20.8193 61.0932 21.1504 61.6924 21.7398C62.2917 22.3292 62.6283 23.1285 62.6283 23.9621V55.3897C62.6283 56.2233 62.2917 57.0226 61.6924 57.612C61.0932 58.2014 60.2804 58.5325 59.433 58.5325ZM27.4797 30.2476C27.4797 29.4141 27.8164 28.6147 28.4156 28.0253C29.0149 27.4359 29.8276 27.1048 30.6751 27.1048H53.0423C53.8898 27.1048 54.7025 27.4359 55.3018 28.0253C55.901 28.6147 56.2377 29.4141 56.2377 30.2476V61.6753C56.2377 62.5088 55.901 63.3082 55.3018 63.8976C54.7025 64.4869 53.8898 64.8181 53.0423 64.8181H30.6751C29.8276 64.8181 29.0149 64.4869 28.4156 63.8976C27.8164 63.3082 27.4797 62.5088 27.4797 61.6753V30.2476Z" fill="white"/>
</g>
<defs>
<clipPath id="clip0_125_18965">
<rect width="87.451" height="87.451" fill="white" transform="translate(0.235352 0.186279)"/>
</clipPath>
<clipPath id="clip1_125_18965">
<rect width="87.451" height="87.451" fill="white" transform="translate(0.235352 0.186279)"/>
</clipPath>
<clipPath id="clip2_125_18965">
<rect width="87.451" height="87.451" fill="white" transform="translate(0.235352 0.186279)"/>
</clipPath>
</defs>
</svg>
