<svg width="88" height="88" viewBox="0 0 88 88" fill="none" xmlns="http://www.w3.org/2000/svg">
<g clip-path="url(#clip0_23_180)">
<circle cx="43.7255" cy="43.9118" r="43.7255" fill="#118849"/>
</g>
<g clip-path="url(#clip1_23_180)">
<path d="M17.0119 27.9246L17.1486 30.8966C16.2473 32.2068 15.8339 33.7915 15.9803 35.3751L18.1563 59.2874C18.3106 60.9849 19.0938 62.5634 20.3521 63.7131C21.6105 64.8628 23.2532 65.5006 24.9577 65.5012H46.0484V62.0852H24.9577C24.1055 62.0844 23.2843 61.7651 22.6555 61.1899C22.0266 60.6148 21.6354 59.8253 21.5587 58.9766L19.3827 35.0642C19.34 34.5916 19.3962 34.1153 19.5478 33.6656C19.6994 33.2159 19.943 32.8027 20.2631 32.4524C20.5832 32.1021 20.9727 31.8223 21.407 31.6309C21.8412 31.4395 22.3105 31.3407 22.7851 31.3407H62.4796C62.9542 31.3407 63.4235 31.4395 63.8577 31.6309C64.2919 31.8223 64.6815 32.1021 65.0016 32.4524C65.3217 32.8027 65.5653 33.2159 65.7169 33.6656C65.8685 34.1153 65.9247 34.5916 65.882 35.0642L64.9733 45.0049H68.4065L69.281 35.3751C69.3669 34.4298 69.2549 33.4771 68.9522 32.5776C68.6494 31.678 68.1626 30.8515 67.5227 30.1505C66.8828 29.4495 66.1039 28.8896 65.2356 28.5064C64.3673 28.1231 63.4287 27.925 62.4796 27.9246H48.8769C47.0651 27.9243 45.3276 27.2042 44.0466 25.9228L41.2181 23.0943C39.9371 21.813 38.1996 21.0929 36.3878 21.0925H23.844C22.0321 21.0925 20.2943 21.8123 19.013 23.0936C17.7317 24.3749 17.0119 26.1126 17.0119 27.9246ZM36.3878 24.5086C37.2937 24.5088 38.1625 24.8688 38.8029 25.5095L41.2181 27.9246H22.7851C21.9652 27.9246 21.1795 28.0681 20.4519 28.3346L20.428 27.8563C20.4459 26.9622 20.8137 26.1108 21.4524 25.4848C22.0911 24.8589 22.9498 24.5084 23.844 24.5086H36.3878Z" fill="white"/>
<path d="M61.4206 51.837C61.8736 51.837 62.3081 52.017 62.6284 52.3373C62.9487 52.6576 63.1287 53.0921 63.1287 53.5451V58.6691H68.2527C68.7057 58.6691 69.1402 58.8491 69.4605 59.1694C69.7808 59.4897 69.9608 59.9242 69.9608 60.3772C69.9608 60.8302 69.7808 61.2646 69.4605 61.5849C69.1402 61.9052 68.7057 62.0852 68.2527 62.0852H63.1287V67.2093C63.1287 67.6623 62.9487 68.0967 62.6284 68.417C62.3081 68.7374 61.8736 68.9173 61.4206 68.9173C60.9676 68.9173 60.5332 68.7374 60.2129 68.417C59.8926 68.0967 59.7126 67.6623 59.7126 67.2093V62.0852H54.5885C54.1355 62.0852 53.7011 61.9052 53.3808 61.5849C53.0604 61.2646 52.8805 60.8302 52.8805 60.3772C52.8805 59.9242 53.0604 59.4897 53.3808 59.1694C53.7011 58.8491 54.1355 58.6691 54.5885 58.6691H59.7126V53.5451C59.7126 53.0921 59.8926 52.6576 60.2129 52.3373C60.5332 52.017 60.9676 51.837 61.4206 51.837Z" fill="white"/>
</g>
<defs>
<clipPath id="clip0_23_180">
<rect width="87.451" height="87.451" fill="white" transform="translate(0 0.186279)"/>
</clipPath>
<clipPath id="clip1_23_180">
<rect width="54.6569" height="54.6569" fill="white" transform="translate(15.3039 17.6765)"/>
</clipPath>
</defs>
</svg>
