<svg width="88" height="88" viewBox="0 0 88 88" fill="none" xmlns="http://www.w3.org/2000/svg">
<g clip-path="url(#clip0_125_18928)">
<circle cx="43.7255" cy="44.2746" r="43.7255" fill="#95227D"/>
<path fill-rule="evenodd" clip-rule="evenodd" d="M24.0491 22.4119H26.6453V61.3549H65.5883V63.9511H24.0491V22.4119ZM62.517 30.4938C62.649 30.6019 62.7584 30.7348 62.839 30.8852C62.9196 31.0355 62.9698 31.2003 62.9867 31.37C63.0035 31.5398 62.9868 31.7112 62.9374 31.8745C62.888 32.0377 62.8069 32.1897 62.6987 32.3216L51.0158 46.6007C50.901 46.7408 50.7581 46.8554 50.5963 46.937C50.4345 47.0186 50.2575 47.0654 50.0765 47.0745C49.8955 47.0835 49.7147 47.0546 49.5456 46.9895C49.3765 46.9245 49.2229 46.8247 49.0946 46.6967L42.3783 39.9804L32.8865 53.0315C32.6789 53.2955 32.377 53.4688 32.0443 53.5148C31.7116 53.5609 31.3739 53.4763 31.1024 53.2786C30.8308 53.081 30.6464 52.7857 30.5879 52.455C30.5294 52.1242 30.6014 51.7837 30.7888 51.5049L41.1736 37.2258C41.2838 37.0739 41.4257 36.9478 41.5893 36.8561C41.753 36.7643 41.9346 36.7091 42.1217 36.6943C42.3087 36.6795 42.4967 36.7054 42.6728 36.7703C42.8489 36.8352 43.0088 36.9374 43.1415 37.07L49.915 43.8461L60.6893 30.6756C60.7973 30.5436 60.9303 30.4341 61.0806 30.3535C61.231 30.2729 61.3957 30.2228 61.5655 30.2059C61.7352 30.189 61.9066 30.2058 62.0699 30.2552C62.2331 30.3046 62.3851 30.3857 62.517 30.4938Z" fill="white"/>
</g>
<defs>
<clipPath id="clip0_125_18928">
<rect width="87.451" height="87.451" fill="white" transform="translate(0 0.549072)"/>
</clipPath>
</defs>
</svg>
