<svg width="88" height="88" viewBox="0 0 88 88" fill="none" xmlns="http://www.w3.org/2000/svg">
<g clip-path="url(#clip0_26_178)">
<circle cx="44.049" cy="43.7255" r="43.7255" fill="#6750A4"/>
<path d="M20.8241 24.974C20.8241 23.569 21.3731 22.2216 22.3502 21.2281C23.3274 20.2346 24.6527 19.6765 26.0347 19.6765H35.636C38.9638 19.6765 41.7497 21.6543 43.6637 23.858C45.0879 25.4967 46.8074 26.7399 48.6137 26.7399H64.2453C65.6273 26.7399 66.9526 27.298 67.9298 28.2915C68.9069 29.2849 69.4559 30.6324 69.4559 32.0374V34.2976C71.4359 35.2335 72.7212 37.3914 72.4294 39.7576L70.2062 57.8539C69.9436 59.9907 68.9219 61.9563 67.3334 63.3807C65.7449 64.8052 63.6991 65.5903 61.581 65.5883H28.6955C26.5786 65.5885 24.5345 64.8027 22.9475 63.3784C21.3605 61.9541 20.3397 59.9895 20.0773 57.8539L17.8541 39.7576C17.7171 38.6451 17.9309 37.5171 18.4646 36.5359C18.9983 35.5548 19.8244 34.7711 20.8241 34.2976V24.974ZM24.2978 33.8032H65.9822V32.0374C65.9822 31.569 65.7992 31.1199 65.4735 30.7887C65.1478 30.4576 64.706 30.2715 64.2453 30.2715H48.6137C45.2651 30.2715 42.6737 28.0501 41.0619 26.196C39.4918 24.3878 37.5673 23.2082 35.636 23.2082H26.0347C25.574 23.2082 25.1322 23.3942 24.8065 23.7254C24.4808 24.0565 24.2978 24.5057 24.2978 24.974V33.8032ZM23.023 37.3349C22.7767 37.335 22.5333 37.3883 22.3089 37.4912C22.0845 37.5942 21.8842 37.7446 21.7212 37.9322C21.5583 38.1199 21.4365 38.3407 21.3639 38.5799C21.2912 38.8191 21.2695 39.0713 21.3 39.3197L23.5232 57.416C23.6807 58.6976 24.2933 59.8765 25.2458 60.7311C26.1983 61.5857 27.4251 62.0571 28.6955 62.0566H61.5845C62.8549 62.0571 64.0817 61.5857 65.0342 60.7311C65.9867 59.8765 66.5993 58.6976 66.7568 57.416L68.98 39.3197C69.0105 39.0713 68.9888 38.8191 68.9161 38.5799C68.8435 38.3407 68.7217 38.1199 68.5588 37.9322C68.3958 37.7446 68.1955 37.5942 67.9711 37.4912C67.7467 37.3883 67.5033 37.335 67.257 37.3349H23.023Z" fill="white"/>
</g>
<defs>
<clipPath id="clip0_26_178">
<rect width="87.451" height="87.451" fill="white" transform="translate(0.323547)"/>
</clipPath>
</defs>
</svg>
