<svg width="88" height="88" viewBox="0 0 88 88" fill="none" xmlns="http://www.w3.org/2000/svg">
<circle cx="43.7255" cy="43.7255" r="43.7255" fill="#95227D"/>
<path d="M36.125 33.5C35.7769 33.5 35.4431 33.6383 35.1969 33.8844C34.9508 34.1306 34.8125 34.4644 34.8125 34.8125C34.8125 35.1606 34.9508 35.4944 35.1969 35.7406C35.4431 35.9867 35.7769 36.125 36.125 36.125H51.875C52.2231 36.125 52.5569 35.9867 52.8031 35.7406C53.0492 35.4944 53.1875 35.1606 53.1875 34.8125C53.1875 34.4644 53.0492 34.1306 52.8031 33.8844C52.5569 33.6383 52.2231 33.5 51.875 33.5H36.125ZM34.8125 40.0625C34.8125 39.7144 34.9508 39.3806 35.1969 39.1344C35.4431 38.8883 35.7769 38.75 36.125 38.75H51.875C52.2231 38.75 52.5569 38.8883 52.8031 39.1344C53.0492 39.3806 53.1875 39.7144 53.1875 40.0625C53.1875 40.4106 53.0492 40.7444 52.8031 40.9906C52.5569 41.2367 52.2231 41.375 51.875 41.375H36.125C35.7769 41.375 35.4431 41.2367 35.1969 40.9906C34.9508 40.7444 34.8125 40.4106 34.8125 40.0625ZM36.125 44C35.7769 44 35.4431 44.1383 35.1969 44.3844C34.9508 44.6306 34.8125 44.9644 34.8125 45.3125C34.8125 45.6606 34.9508 45.9944 35.1969 46.2406C35.4431 46.4867 35.7769 46.625 36.125 46.625H51.875C52.2231 46.625 52.5569 46.4867 52.8031 46.2406C53.0492 45.9944 53.1875 45.6606 53.1875 45.3125C53.1875 44.9644 53.0492 44.6306 52.8031 44.3844C52.5569 44.1383 52.2231 44 51.875 44H36.125ZM36.125 49.25C35.7769 49.25 35.4431 49.3883 35.1969 49.6344C34.9508 49.8806 34.8125 50.2144 34.8125 50.5625C34.8125 50.9106 34.9508 51.2444 35.1969 51.4906C35.4431 51.7367 35.7769 51.875 36.125 51.875H44C44.3481 51.875 44.6819 51.7367 44.9281 51.4906C45.1742 51.2444 45.3125 50.9106 45.3125 50.5625C45.3125 50.2144 45.1742 49.8806 44.9281 49.6344C44.6819 49.3883 44.3481 49.25 44 49.25H36.125Z" fill="white"/>
<path d="M28.25 28.25C28.25 26.8576 28.8031 25.5223 29.7877 24.5377C30.7723 23.5531 32.1076 23 33.5 23H54.5C55.8924 23 57.2277 23.5531 58.2123 24.5377C59.1969 25.5223 59.75 26.8576 59.75 28.25V59.75C59.75 61.1424 59.1969 62.4777 58.2123 63.4623C57.2277 64.4469 55.8924 65 54.5 65H33.5C32.1076 65 30.7723 64.4469 29.7877 63.4623C28.8031 62.4777 28.25 61.1424 28.25 59.75V28.25ZM54.5 25.625H33.5C32.8038 25.625 32.1361 25.9016 31.6438 26.3938C31.1516 26.8861 30.875 27.5538 30.875 28.25V59.75C30.875 60.4462 31.1516 61.1139 31.6438 61.6062C32.1361 62.0984 32.8038 62.375 33.5 62.375H54.5C55.1962 62.375 55.8639 62.0984 56.3562 61.6062C56.8484 61.1139 57.125 60.4462 57.125 59.75V28.25C57.125 27.5538 56.8484 26.8861 56.3562 26.3938C55.8639 25.9016 55.1962 25.625 54.5 25.625Z" fill="white"/>
</svg>
