<svg width="88" height="88" viewBox="0 0 88 88" fill="none" xmlns="http://www.w3.org/2000/svg">
<g clip-path="url(#clip0_23_222)">
<circle cx="43.7255" cy="43.7255" r="43.7255" fill="#6750A4"/>
<g clip-path="url(#clip1_23_222)">
<path fill-rule="evenodd" clip-rule="evenodd" d="M52.4482 40.8519C52.5937 41.0029 52.7091 41.1822 52.7879 41.3796C52.8667 41.577 52.9072 41.7887 52.9072 42.0024C52.9072 42.2162 52.8667 42.4278 52.7879 42.6252C52.7091 42.8226 52.5937 43.002 52.4482 43.1529L43.0732 52.9029C42.928 53.0542 42.7556 53.1743 42.5658 53.2562C42.376 53.3382 42.1724 53.3803 41.9669 53.3803C41.7614 53.3803 41.5579 53.3382 41.3681 53.2562C41.1782 53.1743 41.0058 53.0542 40.8607 52.9029L36.1732 48.0279C36.0279 47.8768 35.9127 47.6975 35.834 47.5001C35.7554 47.3027 35.715 47.0911 35.715 46.8774C35.715 46.6637 35.7554 46.4522 35.834 46.2548C35.9127 46.0574 36.0279 45.878 36.1732 45.7269C36.4666 45.4218 36.8645 45.2504 37.2794 45.2504C37.4849 45.2504 37.6883 45.2924 37.8781 45.3742C38.0679 45.456 38.2404 45.5758 38.3857 45.7269L41.9669 49.4547L50.2357 40.8519C50.3808 40.7006 50.5532 40.5805 50.7431 40.4986C50.9329 40.4167 51.1364 40.3745 51.3419 40.3745C51.5474 40.3745 51.7509 40.4167 51.9408 40.4986C52.1306 40.5805 52.303 40.7006 52.4482 40.8519Z" fill="#FFFEFE"/>
<path d="M31.0294 22.5024H27.9044C26.2468 22.5024 24.6571 23.1873 23.485 24.4062C22.3129 25.6252 21.6544 27.2785 21.6544 29.0024V63.1274C21.6544 64.8513 22.3129 66.5046 23.485 67.7236C24.6571 68.9426 26.2468 69.6274 27.9044 69.6274H59.1544C60.812 69.6274 62.4017 68.9426 63.5738 67.7236C64.7459 66.5046 65.4044 64.8513 65.4044 63.1274V29.0024C65.4044 27.2785 64.7459 25.6252 63.5738 24.4062C62.4017 23.1873 60.812 22.5024 59.1544 22.5024H56.0294V25.7524H59.1544C59.9832 25.7524 60.7781 26.0949 61.3641 26.7043C61.9502 27.3138 62.2794 28.1405 62.2794 29.0024V63.1274C62.2794 63.9894 61.9502 64.816 61.3641 65.4255C60.7781 66.035 59.9832 66.3774 59.1544 66.3774H27.9044C27.0756 66.3774 26.2808 66.035 25.6947 65.4255C25.1087 64.816 24.7794 63.9894 24.7794 63.1274V29.0024C24.7794 28.1405 25.1087 27.3138 25.6947 26.7043C26.2808 26.0949 27.0756 25.7524 27.9044 25.7524H31.0294V22.5024Z" fill="white"/>
<path d="M48.2169 20.8774C48.6313 20.8774 49.0287 21.0486 49.3218 21.3534C49.6148 21.6581 49.7794 22.0715 49.7794 22.5024V25.7524C49.7794 26.1834 49.6148 26.5967 49.3218 26.9015C49.0287 27.2062 48.6313 27.3774 48.2169 27.3774H38.8419C38.4275 27.3774 38.0301 27.2062 37.7371 26.9015C37.444 26.5967 37.2794 26.1834 37.2794 25.7524V22.5024C37.2794 22.0715 37.444 21.6581 37.7371 21.3534C38.0301 21.0486 38.4275 20.8774 38.8419 20.8774H48.2169ZM38.8419 17.6274C37.5987 17.6274 36.4064 18.1411 35.5274 19.0553C34.6483 19.9695 34.1544 21.2095 34.1544 22.5024V25.7524C34.1544 27.0454 34.6483 28.2853 35.5274 29.1996C36.4064 30.1138 37.5987 30.6274 38.8419 30.6274H48.2169C49.4601 30.6274 50.6524 30.1138 51.5315 29.1996C52.4106 28.2853 52.9044 27.0454 52.9044 25.7524V22.5024C52.9044 21.2095 52.4106 19.9695 51.5315 19.0553C50.6524 18.1411 49.4601 17.6274 48.2169 17.6274H38.8419Z" fill="white"/>
</g>
</g>
<defs>
<clipPath id="clip0_23_222">
<rect width="87.451" height="87.451" fill="white"/>
</clipPath>
<clipPath id="clip1_23_222">
<rect width="50" height="52" fill="white" transform="translate(18.5294 17.6274)"/>
</clipPath>
</defs>
</svg>
