<svg width="147" height="27" viewBox="0 0 147 27" fill="none" xmlns="http://www.w3.org/2000/svg">
<g clip-path="url(#clip0_125_21491)">
<path d="M12.67 0H0.5C0.367392 0 0.240215 0.0526784 0.146447 0.146447C0.0526784 0.240215 0 0.367392 0 0.5L0 24.23C0 24.3626 0.0526784 24.4898 0.146447 24.5836C0.240215 24.6773 0.367392 24.73 0.5 24.73H12.67C15.8885 24.6385 18.9445 23.2956 21.1887 20.9867C23.4329 18.6778 24.6883 15.5848 24.6883 12.365C24.6883 9.14517 23.4329 6.05222 21.1887 3.74332C18.9445 1.43442 15.8885 0.0915386 12.67 0V0ZM13.85 21C12.0098 21.3208 10.1153 21.047 8.44129 20.2184C6.76723 19.3898 5.40066 18.0494 4.53978 16.3917C3.6789 14.734 3.36847 12.8452 3.65353 10.9992C3.93858 9.15313 4.80429 7.44591 6.1251 6.1251C7.44591 4.80429 9.15313 3.93858 10.9992 3.65353C12.8452 3.36847 14.734 3.6789 16.3917 4.53978C18.0494 5.40066 19.3898 6.76723 20.2184 8.44129C21.047 10.1153 21.3208 12.0098 21 13.85C20.6892 15.6329 19.8357 17.2764 18.556 18.556C17.2764 19.8357 15.6329 20.6892 13.85 21Z" fill="#95227D"/>
<path d="M46.0001 21.1998C45.9201 21.1998 45.9001 21.1498 45.8701 21.0798L45.6501 19.9998C45.6501 19.8498 45.4301 19.8998 45.3801 19.9998C44.9849 20.4865 44.4843 20.8771 43.9161 21.1422C43.3479 21.4072 42.727 21.5398 42.1001 21.5298C37.9801 21.5298 36.6601 18.8798 36.6601 15.6298V8.67977C36.6587 8.66319 36.6608 8.64651 36.6662 8.63077C36.6716 8.61504 36.6802 8.6006 36.6915 8.58838C36.7028 8.57615 36.7165 8.56641 36.7317 8.55976C36.747 8.55312 36.7634 8.54972 36.7801 8.54977H38.9001C38.9175 8.54825 38.9351 8.55056 38.9516 8.55655C38.9681 8.56255 38.983 8.57207 38.9954 8.58446C39.0078 8.59685 39.0173 8.61181 39.0233 8.62827C39.0293 8.64474 39.0316 8.66232 39.0301 8.67977V15.5498C39.0301 17.4498 39.8801 19.3298 42.3501 19.3298C44.4501 19.3298 45.6501 17.4998 45.6501 15.5498V8.67977C45.6486 8.66232 45.6509 8.64474 45.6569 8.62827C45.6629 8.61181 45.6724 8.59685 45.6848 8.58446C45.6972 8.57207 45.7121 8.56255 45.7286 8.55655C45.7451 8.55056 45.7626 8.54825 45.7801 8.54977H47.9001C47.9175 8.54825 47.9351 8.55056 47.9516 8.55655C47.9681 8.56255 47.983 8.57207 47.9954 8.58446C48.0078 8.59685 48.0173 8.61181 48.0233 8.62827C48.0293 8.64474 48.0316 8.66232 48.0301 8.67977V21.0798C48.0301 21.0964 48.0267 21.1129 48.0201 21.1281C48.0134 21.1434 48.0037 21.1571 47.9915 21.1684C47.9793 21.1797 47.9648 21.1883 47.9491 21.1937C47.9333 21.1991 47.9167 21.2012 47.9001 21.1998H46.0001Z" fill="white"/>
<path d="M60.9002 21.1998C60.8302 21.1998 60.8002 21.1498 60.7802 21.0798L60.5302 19.9998C60.4802 19.8498 60.3002 19.8998 60.2502 19.9998C59.8513 20.469 59.3523 20.8429 58.7899 21.0938C58.2274 21.3447 57.6159 21.4664 57.0002 21.4498C52.8702 21.4498 51.5502 18.7998 51.5502 15.5498V8.67981C51.5488 8.66323 51.5509 8.64654 51.5563 8.63081C51.5617 8.61507 51.5703 8.60064 51.5816 8.58841C51.5929 8.57619 51.6066 8.56644 51.6219 8.5598C51.6371 8.55315 51.6536 8.54975 51.6702 8.54981H53.8002C53.8169 8.54975 53.8333 8.55315 53.8486 8.5598C53.8638 8.56644 53.8775 8.57619 53.8888 8.58841C53.9001 8.60064 53.9087 8.61507 53.9141 8.63081C53.9195 8.64654 53.9216 8.66323 53.9202 8.67981V15.5498C53.9202 17.4498 54.7702 19.3298 57.2502 19.3298C59.3502 19.3298 60.5502 17.4998 60.5502 15.5498V8.67981C60.5488 8.66323 60.5509 8.64654 60.5563 8.63081C60.5617 8.61507 60.5703 8.60064 60.5816 8.58841C60.5929 8.57619 60.6066 8.56644 60.6219 8.5598C60.6371 8.55315 60.6536 8.54975 60.6702 8.54981H62.8002C62.8169 8.54975 62.8333 8.55315 62.8486 8.5598C62.8638 8.56644 62.8775 8.57619 62.8888 8.58841C62.9001 8.60064 62.9087 8.61507 62.9141 8.63081C62.9195 8.64654 62.9216 8.66323 62.9202 8.67981V21.0798C62.9202 21.0956 62.9171 21.1112 62.9111 21.1257C62.9051 21.1403 62.8962 21.1535 62.8851 21.1647C62.8739 21.1758 62.8607 21.1846 62.8461 21.1907C62.8316 21.1967 62.816 21.1998 62.8002 21.1998H60.9002Z" fill="white"/>
<path d="M72.3298 21.0801C72.3298 21.0967 72.3264 21.1132 72.3198 21.1285C72.3131 21.1437 72.3034 21.1574 72.2912 21.1687C72.2789 21.18 72.2645 21.1886 72.2488 21.194C72.233 21.1994 72.2163 21.2015 72.1998 21.2001H70.2798C68.1998 21.2001 66.9998 20.3001 66.9998 18.2501V10.5501C66.9998 10.5183 66.9871 10.4878 66.9646 10.4653C66.9421 10.4427 66.9116 10.4301 66.8798 10.4301H64.6598C64.6423 10.4316 64.6247 10.4293 64.6083 10.4233C64.5918 10.4173 64.5768 10.4078 64.5644 10.3954C64.5521 10.383 64.5425 10.3681 64.5365 10.3516C64.5305 10.3351 64.5282 10.3176 64.5298 10.3001V8.68011C64.5282 8.66265 64.5305 8.64507 64.5365 8.62861C64.5425 8.61214 64.5521 8.59719 64.5644 8.5848C64.5768 8.57241 64.5918 8.56288 64.6083 8.55689C64.6247 8.55089 64.6423 8.54858 64.6598 8.55011H66.8798C66.9116 8.55011 66.9421 8.53746 66.9646 8.51496C66.9871 8.49245 66.9998 8.46193 66.9998 8.43011V5.05011C66.9997 5.03347 67.0031 5.017 67.0097 5.00175C67.0164 4.9865 67.0261 4.9728 67.0384 4.96151C67.0506 4.95023 67.065 4.94161 67.0808 4.9362C67.0965 4.93079 67.1132 4.92872 67.1298 4.9301H69.2498C69.2663 4.92872 69.283 4.93079 69.2988 4.9362C69.3145 4.94161 69.3289 4.95023 69.3411 4.96151C69.3534 4.9728 69.3631 4.9865 69.3698 5.00175C69.3764 5.017 69.3798 5.03347 69.3798 5.05011V8.43011C69.3798 8.46193 69.3924 8.49245 69.4149 8.51496C69.4374 8.53746 69.4679 8.55011 69.4998 8.55011H72.1998C72.2172 8.54858 72.2348 8.55089 72.2513 8.55689C72.2677 8.56288 72.2827 8.57241 72.2951 8.5848C72.3075 8.59719 72.317 8.61214 72.323 8.62861C72.329 8.64507 72.3313 8.66265 72.3298 8.68011V10.3001C72.3313 10.3176 72.329 10.3351 72.323 10.3516C72.317 10.3681 72.3075 10.383 72.2951 10.3954C72.2827 10.4078 72.2677 10.4173 72.2513 10.4233C72.2348 10.4293 72.2172 10.4316 72.1998 10.4301H69.4998C69.4679 10.4301 69.4374 10.4427 69.4149 10.4653C69.3924 10.4878 69.3798 10.5183 69.3798 10.5501V17.8301C69.3798 18.6001 69.7298 19.0801 70.7298 19.0801H72.1998C72.2163 19.0787 72.233 19.0808 72.2488 19.0862C72.2645 19.0916 72.2789 19.1002 72.2912 19.1115C72.3034 19.1228 72.3131 19.1365 72.3198 19.1518C72.3264 19.167 72.3298 19.1835 72.3298 19.2001V21.0801Z" fill="white"/>
<path d="M74.8499 7.00016C74.8333 7.00022 74.8168 6.99682 74.8015 6.99017C74.7863 6.98353 74.7726 6.97378 74.7613 6.96156C74.75 6.94933 74.7414 6.9349 74.736 6.91916C74.7306 6.90343 74.7285 6.88674 74.7299 6.87016V4.33016C74.7285 4.31358 74.7306 4.2969 74.736 4.28117C74.7414 4.26543 74.75 4.25099 74.7613 4.23877C74.7726 4.22654 74.7863 4.2168 74.8015 4.21015C74.8168 4.20351 74.8333 4.20011 74.8499 4.20016H77.3499C77.3674 4.19864 77.3849 4.20095 77.4014 4.20694C77.4179 4.21294 77.4328 4.22246 77.4452 4.23485C77.4576 4.24724 77.4671 4.2622 77.4731 4.27866C77.4791 4.29513 77.4814 4.31271 77.4799 4.33016V6.85016C77.4814 6.86762 77.4791 6.8852 77.4731 6.90166C77.4671 6.91813 77.4576 6.93308 77.4452 6.94547C77.4328 6.95786 77.4179 6.96739 77.4014 6.97338C77.3849 6.97938 77.3674 6.98169 77.3499 6.98016L74.8499 7.00016ZM77.2999 21.1002C77.2999 21.1159 77.2968 21.1315 77.2908 21.1461C77.2847 21.1606 77.2759 21.1739 77.2648 21.185C77.2536 21.1962 77.2404 21.205 77.2258 21.211C77.2113 21.2171 77.1957 21.2202 77.1799 21.2202H75.0499C75.0181 21.2202 74.9876 21.2075 74.9651 21.185C74.9426 21.1625 74.9299 21.132 74.9299 21.1002V8.68016C74.9285 8.66359 74.9306 8.6469 74.936 8.63117C74.9414 8.61543 74.95 8.60099 74.9613 8.58877C74.9726 8.57654 74.9863 8.5668 75.0016 8.56015C75.0168 8.55351 75.0333 8.55011 75.0499 8.55016H77.1799C77.1965 8.55011 77.213 8.55351 77.2283 8.56015C77.2435 8.5668 77.2572 8.57654 77.2685 8.58877C77.2798 8.60099 77.2884 8.61543 77.2938 8.63117C77.2992 8.6469 77.3013 8.66359 77.2999 8.68016V21.1002Z" fill="white"/>
<path d="M83.38 21.0801C83.38 21.0967 83.3766 21.1132 83.37 21.1284C83.3633 21.1437 83.3536 21.1574 83.3414 21.1687C83.3291 21.1799 83.3147 21.1886 83.299 21.194C83.2832 21.1994 83.2665 21.2015 83.25 21.2001H81.13C81.1134 21.2015 81.0967 21.1994 81.081 21.194C81.0652 21.1886 81.0508 21.1799 81.0386 21.1687C81.0263 21.1574 81.0166 21.1437 81.01 21.1284C81.0033 21.1132 80.9999 21.0967 81 21.0801V3.73007C80.9984 3.71261 81.0008 3.69503 81.0068 3.67857C81.0127 3.6621 81.0223 3.64715 81.0347 3.63476C81.047 3.62237 81.062 3.61284 81.0785 3.60685C81.0949 3.60085 81.1125 3.59854 81.13 3.60007H83.25C83.2674 3.59854 83.285 3.60085 83.3015 3.60685C83.3179 3.61284 83.3329 3.62237 83.3453 3.63476C83.3577 3.64715 83.3672 3.6621 83.3732 3.67857C83.3792 3.69503 83.3815 3.71261 83.38 3.73007V21.0801Z" fill="white"/>
<path d="M94.5302 12.8298C94.5127 12.8313 94.4951 12.829 94.4787 12.823C94.4622 12.817 94.4473 12.8075 94.4349 12.7951C94.4225 12.7827 94.413 12.7678 94.407 12.7513C94.401 12.7348 94.3987 12.7172 94.4002 12.6998C94.4002 11.3298 93.3002 10.4298 91.2802 10.4298C89.2602 10.4298 88.5802 11.2498 88.5802 12.0298C88.5802 13.4498 90.3802 13.4798 91.5802 13.6498C94.0802 13.9998 97.0802 14.2298 97.0802 17.4298C97.0802 20.2798 94.7002 21.4298 91.5802 21.4298C87.7802 21.4298 85.9302 19.4298 85.9302 17.0298C85.9302 16.998 85.9428 16.9674 85.9653 16.9449C85.9878 16.9224 86.0184 16.9098 86.0502 16.9098H88.1502C88.1858 16.9069 88.2211 16.9177 88.249 16.94C88.2769 16.9623 88.2952 16.9944 88.3002 17.0298C88.3002 18.2798 89.5802 19.3098 91.5802 19.3098C92.8502 19.3098 94.7002 19.0298 94.7002 17.4098C94.7002 15.9798 92.6302 15.8798 91.5802 15.7598C89.1802 15.4798 86.1502 15.1098 86.1502 12.0098C86.1502 10.0098 88.1502 8.27979 91.2302 8.27979C94.3102 8.27979 96.7302 9.72979 96.7302 12.6798C96.7302 12.7598 96.7302 12.8098 96.6302 12.8098L94.5302 12.8298Z" fill="white"/>
<path d="M98.0002 24.1498C97.9986 24.1323 98.001 24.1148 98.007 24.0983C98.013 24.0818 98.0225 24.0669 98.0349 24.0545C98.0473 24.0421 98.0622 24.0326 98.0787 24.0266C98.0951 24.0206 98.1127 24.0183 98.1302 24.0198H100.95C102.43 24.0198 102.88 23.0698 102.43 21.7498L97.9302 8.6798C97.9302 8.5798 98.0002 8.5498 98.0802 8.5498H100.35C100.43 8.5498 100.45 8.5498 100.48 8.6798L103.75 18.7298C103.758 18.757 103.774 18.7809 103.797 18.7979C103.819 18.8149 103.847 18.8241 103.875 18.8241C103.903 18.8241 103.931 18.8149 103.953 18.7979C103.976 18.7809 103.992 18.757 104 18.7298L107.3 8.7298C107.3 8.6498 107.3 8.5998 107.43 8.5998H109.7C109.78 8.5998 109.85 8.5998 109.83 8.7298L104.83 23.4198C104.13 25.4198 103.35 26.1998 101.33 26.1998H98.0802C98.0578 26.1981 98.0364 26.1902 98.0183 26.1769C98.0002 26.1636 97.9862 26.1455 97.9779 26.1247C97.9696 26.1039 97.9672 26.0812 97.9712 26.0591C97.9751 26.037 97.9852 26.0165 98.0002 25.9998V24.1498Z" fill="white"/>
<path d="M113.75 8.55003C113.83 8.55003 113.85 8.55003 113.88 8.68003L114.13 9.80003C114.13 9.95003 114.35 9.90003 114.4 9.80003C114.779 9.29569 115.277 8.89237 115.849 8.62557C116.421 8.35877 117.05 8.23667 117.68 8.27003C121.3 8.27003 123.13 10.92 123.13 14.17V21.05C123.13 21.0667 123.127 21.0831 123.12 21.0984C123.113 21.1136 123.104 21.1273 123.091 21.1386C123.079 21.1499 123.065 21.1585 123.049 21.1639C123.033 21.1693 123.017 21.1714 123 21.17H120.88C120.863 21.1714 120.847 21.1693 120.831 21.1639C120.815 21.1585 120.801 21.1499 120.789 21.1386C120.776 21.1273 120.767 21.1136 120.76 21.0984C120.753 21.0831 120.75 21.0667 120.75 21.05V14.2C120.75 12.3 119.9 10.43 117.43 10.43C115.33 10.43 114.13 12.25 114.13 14.2V21.08C114.13 21.0967 114.127 21.1131 114.12 21.1284C114.113 21.1436 114.104 21.1573 114.091 21.1686C114.079 21.1799 114.065 21.1885 114.049 21.1939C114.033 21.1993 114.017 21.2014 114 21.2H111.88C111.863 21.2014 111.847 21.1993 111.831 21.1939C111.815 21.1885 111.801 21.1799 111.789 21.1686C111.776 21.1573 111.767 21.1436 111.76 21.1284C111.753 21.1131 111.75 21.0967 111.75 21.08V8.68003C111.748 8.66257 111.751 8.64499 111.757 8.62853C111.763 8.61206 111.772 8.59711 111.785 8.58472C111.797 8.57233 111.812 8.5628 111.828 8.55681C111.845 8.55082 111.863 8.5485 111.88 8.55003H113.75Z" fill="white"/>
<path d="M128.33 15.7298C128.314 15.7284 128.297 15.7305 128.281 15.7359C128.265 15.7413 128.251 15.7499 128.239 15.7612C128.227 15.7725 128.217 15.7862 128.21 15.8014C128.204 15.8167 128.2 15.8332 128.2 15.8498C128.19 16.3155 128.276 16.7783 128.452 17.2096C128.627 17.641 128.89 18.0318 129.222 18.3578C129.555 18.6839 129.951 18.9384 130.386 19.1055C130.82 19.2727 131.285 19.349 131.75 19.3298C132.395 19.3931 133.044 19.2598 133.611 18.9474C134.179 18.6351 134.639 18.1583 134.93 17.5798C134.93 17.4798 135.03 17.4498 135.1 17.4498H137.33C137.4 17.4498 137.48 17.4498 137.45 17.5798C136.8 20.0298 134.58 21.4498 131.75 21.4498C128 21.4498 125.68 18.7798 125.68 14.8798C125.68 10.9798 127.88 8.2998 131.75 8.2998C135.62 8.2998 137.85 10.9798 137.85 14.8798C137.839 15.1237 137.798 15.3654 137.73 15.5998C137.73 15.6798 137.73 15.7298 137.6 15.7298H128.33ZM131.75 10.4298C130.85 10.4252 129.981 10.7639 129.322 11.377C128.662 11.99 128.261 12.8314 128.2 13.7298C128.205 13.7617 128.22 13.7911 128.244 13.8129C128.267 13.8348 128.298 13.8478 128.33 13.8498H135.13C135.162 13.8498 135.193 13.8372 135.215 13.8147C135.238 13.7922 135.25 13.7616 135.25 13.7298C135.251 13.2791 135.159 12.833 134.981 12.419C134.803 12.005 134.542 11.6319 134.214 11.3227C133.886 11.0135 133.498 10.7748 133.075 10.6212C132.651 10.4676 132.2 10.4025 131.75 10.4298Z" fill="white"/>
<path d="M146.3 21.0802C146.3 21.0959 146.297 21.1115 146.291 21.1261C146.285 21.1407 146.276 21.1539 146.265 21.165C146.254 21.1762 146.24 21.185 146.226 21.191C146.211 21.1971 146.196 21.2002 146.18 21.2002H144.25C142.18 21.2002 140.98 20.3002 140.98 18.2502V10.5502C140.98 10.5335 140.977 10.5171 140.97 10.5018C140.963 10.4866 140.954 10.4729 140.941 10.4616C140.929 10.4503 140.915 10.4417 140.899 10.4363C140.883 10.4309 140.867 10.4288 140.85 10.4302H138.63C138.613 10.4317 138.595 10.4294 138.578 10.4234C138.562 10.4174 138.547 10.4079 138.535 10.3955C138.522 10.3831 138.513 10.3681 138.507 10.3517C138.501 10.3352 138.498 10.3176 138.5 10.3002V8.68018C138.498 8.66272 138.501 8.64514 138.507 8.62868C138.513 8.61221 138.522 8.59726 138.535 8.58487C138.547 8.57248 138.562 8.56295 138.578 8.55696C138.595 8.55096 138.613 8.54865 138.63 8.55018H140.85C140.867 8.55156 140.883 8.54949 140.899 8.54408C140.915 8.53867 140.929 8.53005 140.941 8.51877C140.954 8.50749 140.963 8.49378 140.97 8.47853C140.977 8.46328 140.98 8.44681 140.98 8.43018V5.05018C140.98 5.01835 140.993 4.98783 141.015 4.96532C141.038 4.94282 141.068 4.93018 141.1 4.93018H143.23C143.262 4.93018 143.292 4.94282 143.315 4.96532C143.337 4.98783 143.35 5.01835 143.35 5.05018V8.43018C143.35 8.44681 143.353 8.46328 143.36 8.47853C143.367 8.49378 143.376 8.50749 143.389 8.51877C143.401 8.53005 143.415 8.53867 143.431 8.54408C143.447 8.54949 143.463 8.55156 143.48 8.55018H146.18C146.197 8.55012 146.213 8.55352 146.228 8.56017C146.244 8.56681 146.257 8.57656 146.269 8.58878C146.28 8.60101 146.288 8.61544 146.294 8.63118C146.299 8.64691 146.301 8.6636 146.3 8.68018V10.3002C146.301 10.3168 146.299 10.3334 146.294 10.3492C146.288 10.3649 146.28 10.3793 146.269 10.3916C146.257 10.4038 146.244 10.4135 146.228 10.4202C146.213 10.4268 146.197 10.4302 146.18 10.4302H143.48C143.463 10.4288 143.447 10.4309 143.431 10.4363C143.415 10.4417 143.401 10.4503 143.389 10.4616C143.376 10.4729 143.367 10.4866 143.36 10.5018C143.353 10.5171 143.35 10.5335 143.35 10.5502V17.8302C143.35 18.6002 143.7 19.0802 144.7 19.0802H146.18C146.212 19.0802 146.242 19.0928 146.265 19.1153C146.287 19.1378 146.3 19.1684 146.3 19.2002V21.0802Z" fill="white"/>
</g>
<defs>
<clipPath id="clip0_125_21491">
<rect width="146.3" height="26.15" fill="white"/>
</clipPath>
</defs>
</svg>
