<svg height="512" viewBox="0 0 58 58" width="512" xmlns="http://www.w3.org/2000/svg"><g id="008---Invest-In-Manufacture" fill="none" transform="translate(0 -1)"><path id="Shape" d="m14.31 15c.9910849-.0450226 1.9545144-.3409331 2.8-.86.4557876 2.3706686 2.2879693 4.2372943 4.6497388 4.7371513 2.3617695.4998569 4.7930974-.4644179 6.1702612-2.4471513 1.1074769.6775507 2.4749068.7754548 3.667614.2625907s2.0623119-1.5726931 2.332386-2.8425907c1.11.32 2.33.34 3.93-1.24 1.1534116-1.1293299 1.4822785-2.85711764.8244016-4.33120795-.657877-1.47409032-2.1635458-2.38313671-3.7744016-2.27879205-.5356138-3.05921949-3.3172488-5.20406462-6.4121125-4.9442104-3.0948638.25985422-5.4798993 2.83850879-5.4978875 5.9442104-1.0983696-.00187108-2.1754553.30289915-3.11.88-.3079029-1.60595788-1.2579299-3.01667533-2.630295-3.90578668s-3.0481639-1.17958235-4.639705-.80421332c-1.6139325-1.9477159-4.27602634-2.67404869-6.65551607-1.81590879-2.37948973.85813989-3.96521622 3.11640787-3.96448393 5.64590879z" fill="#bdc3c7"/><path id="Shape" d="m58 40.27v17.73c0 .5522847-.4477153 1-1 1h-43l.9-28.49 3.31-3.16c.5036352-.471206 1.2863648-.471206 1.79 0l11 11.3c.5036352.471206 1.2863648.471206 1.79 0l11.42-11.3c.5036352-.471206 1.2863648-.471206 1.79 0l11.09 10.77c.5811907.5643974.9094098 1.3398601.91 2.15z" fill="#7f6e5d"/><path id="Shape" d="m58 42.77v15.23c0 .5522847-.4477153 1-1 1h-42.92l.82-26 3.31-3.16c.5036352-.471206 1.2863648-.471206 1.79 0l11 11.3c.5036352.471206 1.2863648.471206 1.79 0l11.42-11.3c.5036352-.471206 1.2863648-.471206 1.79 0l11.09 10.78c.5811907.5643974.9094098 1.3398601.91 2.15z" fill="#5f5346"/><path id="Shape" d="m16 59h-15c-.55228475 0-1-.4477153-1-1l2-51h10.07c1.0740671-.00085958 1.9570376.84679216 2 1.92z" fill="#cc6f56"/><g fill="#f09372"><path id="Shape" d="m7 55c0 .5522847-.44771525 1-1 1h-5.92l.08-2h5.84c.55228475 0 1 .4477153 1 1z"/><path id="Shape" d="m7 41c0 .5522847-.44771525 1-1 1h-5.37l.07-2h5.3c.55228475 0 1 .4477153 1 1z"/><path id="Shape" d="m15.73 52h-3.73c-.5522847 0-1-.4477153-1-1s.4477153-1 1-1h3.65z"/><path id="Shape" d="m15.15 37h-5.15c-.55228475 0-1-.4477153-1-1s.44771525-1 1-1h5.08z"/><path id="Shape" d="m10 48h-4c-.55228475 0-1-.4477153-1-1s.44771525-1 1-1h4c.5522847 0 1 .4477153 1 1s-.4477153 1-1 1z"/><path id="Shape" d="m10 29c0 .5522847-.44771525 1-1 1h-7.9l.08-2h7.82c.55228475 0 1 .4477153 1 1z"/><path id="Shape" d="m14.65 24c-.1 0-1.06 0-5.65 0-.55228475 0-1-.4477153-1-1s.44771525-1 1-1h5.57z"/><path id="Shape" d="m9 17c0 .5522847-.44771525 1-1 1-6.77 0-6.25 0-6.43 0l.08-2h6.35c.55228475 0 1 .4477153 1 1z"/><path id="Shape" d="m4 35c0 .5522847-.44771525 1-1 1h-2.14l.08-2h2.06c.55228475 0 1 .4477153 1 1z"/><path id="Shape" d="m15.42 44h-2.42c-.5522847 0-1-.4477153-1-1s.4477153-1 1-1h2.34z"/><path id="Shape" d="m14.19 12h-4.19c-.55228475 0-1-.4477153-1-1s.44771525-1 1-1h4.11z"/></g><path id="Shape" d="m45 44.5c-2.54 0-3.53-.87-3.71-1-.4142135-.3921222-.4321221-1.0457864-.0399999-1.46.3921221-.4142135 1.0457863-.4321221 1.4599999-.04.69943.3832507 1.4944798.5568423 2.29.5.75 0 2-.16 2-1.25 0-.84-.32-1-2.12-1.26-1.45-.18-3.88-.48-3.88-3.24 0-2.11 2.06-3.25 4-3.25 1.5339698-.099361 3.0073361.6145382 3.88 1.88.2761424.4832492.1082491 1.0988576-.375 1.375-.4832492.2761423-1.0988576.1082491-1.375-.375-.86-1.33-4.13-1-4.13.39 0 .84.32 1 2.12 1.26 1.45.18 3.88.48 3.88 3.24 0 1.48-1 3.23-4 3.23z" fill="#4fba6f"/><path id="Shape" d="m45 46c-.5522847 0-1-.4477153-1-1v-1.5c0-.5522847.4477153-1 1-1s1 .4477153 1 1v1.5c0 .5522847-.4477153 1-1 1z" fill="#4fba6f"/><path id="Shape" d="m45 35.5c-.5522847 0-1-.4477153-1-1v-1.5c0-.5522847.4477153-1 1-1s1 .4477153 1 1v1.5c0 .5522847-.4477153 1-1 1z" fill="#4fba6f"/><circle id="Oval" cx="47" cy="4" fill="#bdc3c7" r="3"/><circle id="Oval" cx="56" cy="8" fill="#bdc3c7" r="2"/><path id="Shape" d="m21 40h2c.5522847 0 1 .4477153 1 1v18h-4v-18c0-.5522847.4477153-1 1-1z" fill="#3b97d3"/><path id="Shape" d="m31 51h2c.5522847 0 1 .4477153 1 1v7h-4v-7c0-.5522847.4477153-1 1-1z" fill="#ff5364"/><path id="Shape" d="m41 49h2c.5522847 0 1 .4477153 1 1v9h-4v-9c0-.5522847.4477153-1 1-1z" fill="#f3d55b"/><path id="Shape" d="m51 54h2c.5522847 0 1 .4477153 1 1v4h-4v-4c0-.5522847.4477153-1 1-1z" fill="#24ae5f"/></g></svg>