<svg width="88" height="88" viewBox="0 0 88 88" fill="none" xmlns="http://www.w3.org/2000/svg">
<g clip-path="url(#clip0_26_181)">
<circle cx="43.9608" cy="44.2746" r="43.7255" fill="#95227D"/>
<path d="M64.0232 19.0067C64.0049 18.4671 63.5621 18.0393 63.0221 18.0393H56.8632C56.3234 18.0393 55.8805 18.4672 55.8622 19.0068L54.8152 49.6478L39.6649 40.7236C39.3551 40.5411 38.9715 40.5386 38.6595 40.717C38.3475 40.8954 38.1549 41.2272 38.1549 41.5867V49.2924L23.608 40.7236C23.2982 40.5411 22.9147 40.5386 22.6026 40.717C22.2906 40.8955 22.098 41.2272 22.098 41.5867V67.322C22.098 67.8752 22.5466 68.3236 23.0997 68.3236H64.6718C64.9434 68.3236 65.2035 68.2133 65.392 68.018C65.5809 67.8226 65.6821 67.5591 65.6729 67.2877L64.0232 19.0067ZM24.1012 43.3393L35.4824 50.0433H24.1012V43.3393ZM38.1549 66.3203H24.1012V52.0466H38.1549V66.3203ZM40.1582 43.3393L51.5394 50.0433H40.1582V43.3393ZM54.2119 66.3203H40.1582V52.0466H54.2119V66.3203ZM57.8313 20.0426H62.0541L62.1021 21.4487H57.7834L57.8313 20.0426ZM57.7149 23.452H62.1706L62.2262 25.0779H57.6593L57.7149 23.452ZM56.2502 66.3203L57.591 27.0814H62.2947L63.6354 66.3203H56.2502Z" fill="white"/>
</g>
<defs>
<clipPath id="clip0_26_181">
<rect width="87.451" height="87.451" fill="white" transform="translate(0.235291 0.549072)"/>
</clipPath>
</defs>
</svg>
