<svg height="512" viewBox="0 0 58 58" width="512" xmlns="http://www.w3.org/2000/svg"><g id="Page-1" fill="none" fill-rule="evenodd"><g id="001---Browser" fill-rule="nonzero"><path id="Shape" d="m48.8 44h7.2c1.1032019-.0032948 1.9967052-.8967981 2-2v-40c-.0032948-1.10320187-.8967981-1.9967052-2-2h-54c-1.10320187.0032948-1.9967052.89679813-2 2v40c.0032948 1.1032019.89679813 1.9967052 2 2z" fill="#ecf0f1"/><circle id="Oval" cx="29" cy="37" fill="#67b9cc" r="21"/><path id="Shape" d="m58 2v6h-58v-6c.0032948-1.10320187.89679813-1.9967052 2-2h54c1.1032019.0032948 1.9967052.89679813 2 2z" fill="#3b97d3"/><circle id="Oval" cx="4" cy="4" fill="#ff5364" r="1"/><circle id="Oval" cx="8" cy="4" fill="#f0c419" r="1"/><circle id="Oval" cx="12" cy="4" fill="#65ddb9" r="1"/><path id="Shape" d="m32 3h-6c-.5522847 0-1 .44771525-1 1s.4477153 1 1 1h6c.5522847 0 1-.44771525 1-1s-.4477153-1-1-1z" fill="#2980ba"/><path id="Shape" d="m54 3h-11c-.5522847 0-1 .44771525-1 1s.4477153 1 1 1h11c.5522847 0 1-.44771525 1-1s-.4477153-1-1-1z" fill="#2980ba"/><path id="Shape" d="m49.97 38c.02-.33.03-.66.03-1s-.01-.67-.03-1h-9c-.0546818-2.9491123-.4506519-5.8819754-1.18-8.74 2.3656132-.3184656 4.7098683-.7793021 7.02-1.38-.371039-.6050143-.7749788-1.1892248-1.21-1.75-2.1057204.5199323-4.2391149.9205698-6.39 1.2-1.35-4.02-3.38-7.15-5.83-8.87-2.8844228-.6133341-5.8655772-.6133341-8.75 0-2.45 1.72-4.49 4.85-5.84 8.87-2.1493322-.2891428-4.282203-.689682-6.39-1.2-.4350212.5607752-.838961 1.1449857-1.21 1.75 2.3103482.5997481 4.6545459 1.0605733 7.02 1.38-.7300196 2.857894-1.1260003 5.7908356-1.18 8.74h-9c-.02.33-.03.66-.03 1s.01.67.03 1h9c.0539997 2.9491644.4499804 5.882106 1.18 8.74-2.3654541.3194267-4.7096518.7802519-7.02 1.38.371039.6050143.7749788 1.1892248 1.21 1.75 2.107797-.510318 4.2406678-.9108572 6.39-1.2 1.35 4.02 3.39 7.15 5.84 8.87 2.8844228.6133341 5.8655772.6133341 8.75 0 2.45-1.72 4.48-4.85 5.83-8.87 2.1508851.2794302 4.2842796.6800677 6.39 1.2.4350212-.5607752.838961-1.1449857 1.21-1.75-2.3101317-.6006979-4.6543868-1.0615344-7.02-1.38.7293481-2.8580246 1.1253182-5.7908877 1.18-8.74zm-21.97 18.9c-2.91-.61-5.49-3.86-7.14-8.47 2.31-.25 4.71-.38 7.14-.41zm0-10.88c-2.64.03-5.25.19-7.76.47-.7444974-2.7707951-1.150787-5.6215378-1.21-8.49h8.97zm0-10.02h-8.97c.059213-2.8684622.4655026-5.7192049 1.21-8.49 2.51.28 5.12.44 7.76.47zm0-10.02c-2.43-.03-4.83-.16-7.14-.41 1.65-4.61 4.23-7.86 7.14-8.47zm2-8.88c2.91.61 5.49 3.86 7.14 8.47-2.31.25-4.71.38-7.14.41zm0 39.8v-8.88c2.43.03 4.83.16 7.14.41-1.65 4.61-4.23 7.86-7.14 8.47zm7.76-10.41c-2.51-.28-5.12-.44-7.76-.47v-8.02h8.97c-.0599363 2.8684034-.4662135 5.7190594-1.21 8.49zm-7.76-10.49v-8.02c2.64-.03 5.25-.19 7.76-.47.7437865 2.7709406 1.1500637 5.6215966 1.21 8.49z" fill="#2fa8cc"/><g fill="#3f5c6c"><path id="Shape" d="m6 14h-2c-.55228475 0-1-.4477153-1-1s.44771525-1 1-1h2c.55228475 0 1 .4477153 1 1s-.44771525 1-1 1z"/><path id="Shape" d="m6 22h-2c-.55228475 0-1-.4477153-1-1s.44771525-1 1-1h2c.55228475 0 1 .4477153 1 1s-.44771525 1-1 1z"/><path id="Shape" d="m19 14h-9c-.55228475 0-1-.4477153-1-1s.44771525-1 1-1h9c.5522847 0 1 .4477153 1 1s-.4477153 1-1 1z"/><path id="Shape" d="m12 18h-8c-.55228475 0-1-.4477153-1-1s.44771525-1 1-1h8c.5522847 0 1 .4477153 1 1s-.4477153 1-1 1z"/></g></g></g></svg>